<svg xmlns="http://www.w3.org/2000/svg" id="Layer_1" viewBox="0 0 156.9 156.9"><defs><style>      .st0 {        fill: #4381dc;      }    </style></defs><path class="st0" d="M155,43.9c-.7,14.9-11.1,35.3-31.3,61.2-20.9,27-38.5,40.6-52.9,40.6s-16.5-8.2-22.7-24.7l-12.4-45.4c-4.6-16.5-9.5-24.7-14.8-24.7s-5.2,2.4-12,7.2l-7.2-9.3c7.5-6.6,14.9-13.2,22.3-19.9,10.1-8.7,17.6-13.3,22.7-13.7,11.9-1.1,19.2,7,22,24.4,3,18.8,5,30.5,6.2,35.1,3.4,15.6,7.2,23.4,11.3,23.4s8-5,14.4-15.1c6.4-10.1,9.9-17.8,10.3-23,.9-8.7-2.5-13.1-10.3-13.1s-7.4.8-11.3,2.4c7.6-24.5,22-36.4,43.3-35.7,15.8.5,23.3,10.7,22.3,30.6h0Z"></path></svg>