<svg xmlns="http://www.w3.org/2000/svg" width="156.858" height="156.858" viewBox="0 0 156.858 156.858"><g id="Group_34" data-name="Group 34" transform="translate(-100 -5276)"><path id="Icon_simple-linkedin" data-name="Icon simple-linkedin" d="M133.637,133.67H110.409v-36.4c0-8.68-.176-19.849-12.1-19.849-12.111,0-13.96,9.444-13.96,19.209V133.67H61.116V58.822H83.429v10.2h.3c3.118-5.882,10.7-12.091,22.026-12.091,23.535,0,27.888,15.49,27.888,35.653V133.67ZM34.881,48.58a13.49,13.49,0,1,1,13.49-13.5A13.477,13.477,0,0,1,34.881,48.58ZM46.528,133.67H23.235V58.822H46.528ZM145.257,0H11.575A11.436,11.436,0,0,0,0,11.3V145.558a11.432,11.432,0,0,0,11.575,11.3H145.238a11.476,11.476,0,0,0,11.621-11.3V11.3A11.48,11.48,0,0,0,145.238,0Z" transform="translate(100 5276)" fill="#4381dc"></path></g></svg>