<svg xmlns="http://www.w3.org/2000/svg" xmlns:xlink="http://www.w3.org/1999/xlink" id="Layer_1" x="0px" y="0px" viewBox="0 0 2000 327.5" style="enable-background:new 0 0 2000 327.5;" xml:space="preserve"><style type="text/css">	.st0{fill:#FFFFFF;}</style><g>	<g>		<path class="st0" d="M1405.5,27.6c-0.2-2.9-0.9-5.7-2.1-8.3c-1.2-2.6-3-4.7-5.3-6.4c-2.3-1.6-5.2-2.4-8.8-2.4   c-3.8,0-6.6,1.1-8.6,3.2c-2,2.1-3,4.6-3,7.4c0,2.5,0.7,4.7,2.2,6.4c1.5,1.7,3.3,3.2,5.7,4.5c2.3,1.3,4.8,2.6,7.4,3.8   c2.3,1,4.6,2.1,6.9,3.3c2.3,1.2,4.4,2.5,6.3,4c1.9,1.5,3.4,3.3,4.5,5.4c1.1,2.1,1.7,4.6,1.7,7.5c0,3.3-0.8,6.3-2.5,8.9   c-1.7,2.6-4.1,4.6-7.2,6.1c-3.1,1.5-7,2.2-11.5,2.2c-2.7,0-5.5-0.4-8.4-1.2c-2.9-0.8-5.5-1.9-7.7-3.4l0.5,3.9h-4.7l-0.5-19.3h3.5   c0.3,5.3,2.1,9.4,5.5,12.1c3.4,2.8,7.5,4.1,12.2,4.1c2.4,0,4.5-0.4,6.5-1.3c2-0.9,3.6-2.2,4.8-3.9c1.2-1.7,1.8-3.7,1.8-6.2   c0-2.7-0.7-5-2.2-6.8c-1.5-1.8-3.3-3.4-5.6-4.7c-2.3-1.3-4.7-2.6-7.3-3.8c-2.3-1-4.6-2.1-6.8-3.3c-2.2-1.1-4.3-2.5-6.1-3.9   c-1.8-1.5-3.3-3.3-4.4-5.3c-1.1-2.1-1.7-4.5-1.7-7.4c0-1.6,0.3-3.3,0.8-5.1c0.5-1.8,1.5-3.6,2.9-5.2c1.4-1.7,3.2-3,5.6-4.1   c2.4-1.1,5.4-1.6,9.1-1.6c2.3,0,4.9,0.3,7.8,1c2.9,0.6,5.5,1.9,8,3.7l-0.4-3.9h4.6v20H1405.5z"></path>		<path class="st0" d="M1435.1,73.4c-1.4,0-2.8-0.2-4.3-0.6c-1.5-0.4-2.8-1.2-4-2.3c-1.2-1.1-2.2-2.8-2.9-5   c-0.7-2.2-1.1-5.1-1.1-8.8l0.2-26.3l-7,0.1v-3.9c1.6-0.1,3.2-0.6,4.8-1.8c1.6-1.1,3.1-2.6,4.4-4.6c1.3-1.9,2.2-4,2.7-6.3h3.1v12.7   h15.2v3.5l-15.2,0.2l-0.2,25.2c0,2.7,0.2,5,0.7,6.9c0.5,1.9,1.2,3.3,2.2,4.3c1,1,2.4,1.4,4,1.4c1.7,0,3.3-0.5,4.8-1.4   c1.5-1,2.8-2.3,3.9-4l2.4,2c-1.3,2-2.6,3.6-3.9,4.7c-1.3,1.2-2.6,2-3.8,2.6c-1.2,0.6-2.3,0.9-3.4,1.1   C1436.7,73.3,1435.9,73.4,1435.1,73.4z"></path>		<path class="st0" d="M1451.4,69.2c1.9,0,3.2-0.5,3.9-1.4c0.7-0.9,1.1-2.2,1.3-3.9c0.1-1.7,0.2-3.6,0.2-5.8V37.4c0-1,0-1.9,0-2.9   c0-1,0.1-2,0.3-3c-1.1,0.1-2.2,0.1-3.2,0.1c-1.1,0-2.1,0.1-3.2,0.1v-3.7h2.8c2.6,0,4.4-0.3,5.4-0.8c1-0.5,1.8-1.1,2.5-1.7h2.6   c0.1,1,0.2,2.2,0.3,3.6c0.1,1.4,0.1,3.2,0.2,5.4c0.9-1.5,2.1-3,3.7-4.4c1.6-1.5,3.3-2.7,5.3-3.6c2-1,4-1.5,6.2-1.5   c1.7,0,3.2,0.5,4.4,1.4c1.3,0.9,1.9,2.4,1.9,4.4c0,0.5-0.2,1.1-0.5,1.8c-0.3,0.7-0.8,1.3-1.5,1.8c-0.7,0.5-1.5,0.8-2.6,0.8   c-1.3-0.1-2.4-0.6-3.2-1.6c-0.8-1-1.1-2.2-0.9-3.5c-1.5-0.1-3.1,0.3-4.7,1.2c-1.6,0.8-3.1,2-4.5,3.5c-1.4,1.5-2.6,3.2-3.7,5.2   l0.1,22.3c0,1.2,0,2.3,0,3.2c0,0.9-0.1,1.9-0.3,2.9c1-0.1,1.9-0.1,2.9-0.1c0.9,0,1.9-0.1,2.9-0.1v3.7h-18.6V69.2z"></path>		<path class="st0" d="M1515.8,71.9c-0.2-1-0.3-1.9-0.4-2.7c-0.1-0.8-0.2-1.6-0.3-2.4c-2.1,2.1-4.3,3.7-6.7,4.9   c-2.4,1.2-4.9,1.8-7.6,1.8c-4.6,0-8-1-10.2-3.1c-2.2-2.1-3.4-4.6-3.4-7.7c0-2.8,0.9-5.2,2.6-7.2c1.7-2,4-3.7,6.7-5   c2.8-1.3,5.7-2.3,9-2.9c3.2-0.6,6.4-0.9,9.4-0.9V41c0-2.1-0.2-4.1-0.5-6c-0.4-1.9-1.1-3.4-2.4-4.6c-1.2-1.2-3.1-1.8-5.8-1.9   c-1.8-0.1-3.6,0.3-5.4,1c-1.8,0.7-3.2,2-4,3.7c0.5,0.5,0.8,1,1,1.7c0.2,0.6,0.2,1.2,0.2,1.8c0,0.7-0.3,1.6-0.9,2.5   c-0.6,0.9-1.7,1.4-3.2,1.3c-1.3,0-2.2-0.4-2.9-1.3c-0.7-0.9-1-1.9-1-3.1c0-2.1,0.8-3.9,2.3-5.5c1.5-1.6,3.7-2.9,6.4-3.9   s5.8-1.5,9.3-1.5c5.1,0,8.8,1.3,11.2,4c2.4,2.7,3.6,6.9,3.5,12.7c0,2.2,0,4.5,0,6.8c0,2.3,0,4.5,0,6.8c0,2.3,0,4.5,0,6.8   c0,1,0,1.9-0.1,2.9c-0.1,1-0.2,2.1-0.3,3.3c1.1-0.1,2.2-0.1,3.2-0.2c1.1-0.1,2.1-0.1,3.2-0.2v3.8H1515.8z M1515,49.7   c-2.1,0.1-4.2,0.3-6.5,0.8c-2.3,0.5-4.4,1.1-6.3,2c-1.9,0.9-3.4,2.1-4.6,3.6c-1.2,1.5-1.7,3.3-1.7,5.4c0.1,2.2,0.9,3.9,2.2,5   s3,1.7,4.9,1.7c2.5,0,4.6-0.5,6.5-1.4c1.8-0.9,3.7-2.3,5.5-3.9c-0.1-0.7-0.1-1.4-0.1-2.2c0-0.8,0-1.6,0-2.4c0-0.3,0-1.3,0-2.9   C1514.9,53.7,1515,51.8,1515,49.7z"></path>		<path class="st0" d="M1549.6,73.4c-1.4,0-2.8-0.2-4.3-0.6c-1.5-0.4-2.8-1.2-4-2.3c-1.2-1.1-2.2-2.8-2.9-5   c-0.7-2.2-1.1-5.1-1.1-8.8l0.2-26.3l-7,0.1v-3.9c1.6-0.1,3.2-0.6,4.8-1.8c1.6-1.1,3.1-2.6,4.4-4.6c1.3-1.9,2.2-4,2.7-6.3h3.1v12.7   h15.2v3.5l-15.2,0.2l-0.2,25.2c0,2.7,0.2,5,0.7,6.9c0.5,1.9,1.2,3.3,2.2,4.3c1,1,2.4,1.4,4,1.4c1.7,0,3.3-0.5,4.8-1.4   c1.5-1,2.8-2.3,3.9-4l2.4,2c-1.3,2-2.6,3.6-3.9,4.7c-1.3,1.2-2.6,2-3.8,2.6c-1.2,0.6-2.3,0.9-3.4,1.1   C1551.2,73.3,1550.3,73.4,1549.6,73.4z"></path>		<path class="st0" d="M1587.8,73.4c-4.2,0-7.9-1-11.3-2.9c-3.4-2-6-4.7-7.9-8.3c-1.9-3.6-2.9-7.8-2.9-12.7c0-4.2,1-8.2,2.9-11.9   c1.9-3.7,4.6-6.7,8-8.9s7.4-3.4,12-3.4c2.5,0,4.9,0.4,7.1,1.2c2.2,0.8,4.2,2.1,5.9,3.7c1.7,1.7,3,3.8,4,6.3c1,2.5,1.5,5.5,1.5,8.8   l-31.9,0.5c0,4.6,0.5,8.6,1.5,12.1c1,3.5,2.6,6.2,4.9,8.1c2.2,1.9,5.1,2.9,8.6,2.9c1.9,0,3.8-0.3,5.8-1c2-0.7,3.8-1.6,5.5-2.7   c1.7-1.1,3.1-2.4,4.1-3.8l2.2,1.8c-1.6,2.5-3.6,4.6-5.9,6.1c-2.3,1.5-4.7,2.6-7.1,3.3C1592.1,73,1589.8,73.4,1587.8,73.4z    M1575.3,41.9h23.1c0-2.2-0.3-4.3-1-6.3c-0.6-2-1.7-3.7-3.1-5c-1.5-1.3-3.4-2-5.7-2c-3.5,0-6.4,1-8.8,3.1   C1577.5,33.9,1576,37.2,1575.3,41.9z"></path>		<path class="st0" d="M1635,96.5c-5.4,0-9.8-0.6-13.2-1.8c-3.3-1.2-5.7-2.8-7.3-4.6c-1.5-1.9-2.3-3.8-2.3-5.8   c0-1.9,0.4-3.5,1.3-4.9c0.9-1.4,2-2.6,3.3-3.7c1.3-1,2.6-1.8,3.8-2.3c-1.9-0.7-3.5-1.6-4.6-2.7c-1.1-1.1-1.7-2.6-1.7-4.5   c0-2.1,0.8-4.1,2.5-5.9c1.7-1.8,3.9-3,6.5-3.4c-2.8-1.3-5-3.2-6.7-5.5c-1.7-2.4-2.5-5.1-2.5-8.3c0-3.6,0.9-6.8,2.8-9.5   c1.9-2.7,4.3-4.8,7.2-6.3c2.9-1.5,6-2.2,9.1-2.2c2,0,4,0.3,6,0.9c2,0.6,3.8,1.4,5.5,2.5c0.6-1.7,1.5-3.2,2.6-4.5   c1.1-1.3,2.4-2.4,3.9-3.1c1.5-0.8,3-1.1,4.5-1.1c1.6,0,2.8,0.4,3.6,1.2c0.8,0.8,1.2,1.9,1.2,3.3c0,0.4-0.1,0.9-0.4,1.5   c-0.2,0.6-0.6,1.1-1.2,1.5c-0.6,0.4-1.3,0.6-2.3,0.6c-1,0-1.9-0.3-2.5-0.9c-0.7-0.6-1.1-1.4-1.3-2.3c-1.5,0.2-2.7,1-3.5,2.1   c-0.8,1.2-1.4,2.5-1.7,3.9c1.5,1.3,2.6,2.9,3.5,4.8c0.9,1.9,1.3,3.9,1.3,6c0,3.4-0.9,6.4-2.7,9.1c-1.8,2.7-4.1,4.7-7,6.2   c-2.9,1.5-6,2.2-9.4,2.2c-1.2,0-2.1-0.1-3-0.2c-0.8-0.2-1.9-0.2-3.1-0.2c-2.2,0-4.1,0.5-5.4,1.6c-1.4,1.1-1.9,2.4-1.5,3.9   c0.5,1.4,2,2.4,4.4,2.8c2.5,0.4,5.8,0.7,10,0.9c4.7,0.2,8.6,0.7,12,1.6c3.3,0.9,5.9,2.3,7.7,4.2c1.8,1.9,2.7,4.5,2.7,7.8   c0,2.4-0.7,4.6-2,6.5c-1.3,1.9-3,3.5-5.2,4.8c-2.1,1.3-4.5,2.2-7.2,2.9C1640.3,96.1,1637.7,96.5,1635,96.5z M1634.9,92.9   c5.2,0,9.3-1,12.2-2.9c2.9-1.9,4.4-4.2,4.4-6.8c0-2.2-0.8-3.9-2.3-5.1c-1.5-1.2-3.6-2-6.2-2.4c-2.6-0.5-5.6-0.7-9-0.8   c-1.6-0.1-3.2-0.1-4.8-0.2c-1.6-0.1-3.1-0.3-4.5-0.5c-1.6,1.1-2.9,2.4-3.8,4c-0.9,1.6-1.4,3.2-1.4,5c0,3,1.4,5.3,4.2,7.1   C1626.6,92.1,1630.3,92.9,1634.9,92.9z M1633.8,55.8c2.2,0,4.1-0.5,5.6-1.6c1.5-1.1,2.6-2.6,3.4-4.4c0.8-1.9,1.1-4,1.1-6.3   c0-2.7-0.4-5.1-1.2-7.4c-0.8-2.3-2-4.1-3.5-5.5c-1.5-1.4-3.5-2.1-5.9-2.1c-3.3,0-5.8,1.2-7.6,3.7c-1.8,2.4-2.7,5.5-2.7,9.1   c0,2.9,0.4,5.5,1.3,7.7c0.8,2.2,2.1,3.9,3.7,5.2C1629.6,55.1,1631.5,55.8,1633.8,55.8z"></path>		<path class="st0" d="M1663.7,69.2c1.9,0,3.2-0.5,3.9-1.4c0.7-0.9,1.1-2.2,1.3-3.9c0.1-1.7,0.2-3.6,0.2-5.8V37.4c0-1,0-1.9,0.1-2.8   c0.1-0.9,0.1-1.9,0.3-3.1c-1.1,0.1-2.2,0.1-3.2,0.2c-1.1,0.1-2.1,0.1-3.2,0.2v-3.8c2.7,0,4.7-0.1,6.2-0.4c1.5-0.2,2.6-0.5,3.3-0.9   c0.8-0.4,1.3-0.8,1.8-1.2h2.6v36.6c0,1.2,0,2.3,0,3.2c0,0.9-0.1,1.9-0.3,2.9c1-0.1,1.9-0.1,2.9-0.1c0.9,0,1.9-0.1,2.9-0.1v3.7   h-18.5V69.2z M1672.5,16.7c-1.3,0-2.4-0.5-3.4-1.5c-1-1-1.5-2.3-1.5-3.8s0.5-2.8,1.5-3.9c1-1.1,2.1-1.6,3.4-1.6   c1.4,0,2.6,0.5,3.5,1.6c0.9,1.1,1.4,2.3,1.4,3.9s-0.5,2.8-1.5,3.8C1675,16.2,1673.8,16.7,1672.5,16.7z"></path>		<path class="st0" d="M1709.5,73.4c-4.1,0-7.8-0.9-11.2-2.8c-3.4-1.8-6.1-4.5-8.2-8c-2-3.5-3-7.7-3-12.6c0-3.1,0.6-6.2,1.7-9.2   c1.1-3,2.8-5.6,4.9-8s4.6-4.3,7.5-5.7c2.9-1.4,6.1-2.1,9.6-2.1c3.4,0,6.3,0.5,8.8,1.5c2.5,1,4.5,2.4,5.9,4.1   c1.4,1.7,2.1,3.5,2.1,5.5c0,1.3-0.4,2.5-1.1,3.4c-0.7,0.9-1.8,1.4-3.2,1.4c-1.5,0.1-2.6-0.4-3.2-1.4c-0.6-1-1-1.9-1-2.7   c0-0.6,0.1-1.2,0.3-1.9c0.2-0.6,0.5-1.2,1.1-1.8c-0.5-1.5-1.3-2.5-2.5-3.2c-1.2-0.7-2.5-1.1-3.8-1.4c-1.3-0.2-2.4-0.3-3.2-0.3   c-4.1,0-7.6,1.6-10.4,4.9c-2.8,3.3-4.2,8.1-4.2,14.4c0,4.1,0.6,7.6,2,10.8c1.3,3.1,3.1,5.6,5.5,7.4c2.4,1.8,5.1,2.7,8.2,2.7   c2.8,0,5.6-0.8,8.2-2.3c2.6-1.5,4.6-3.4,6.1-5.5l2.4,1.8c-1.6,2.5-3.5,4.6-5.7,6.2c-2.2,1.6-4.5,2.7-6.8,3.4   C1713.7,73,1711.6,73.4,1709.5,73.4z"></path>		<path class="st0" d="M1756.8,68.9c2.3-0.1,3.9-0.6,4.7-1.6c0.8-0.9,1.3-2.2,1.4-3.9c0.1-1.7,0.1-3.5,0.1-5.7V18.6   c0-1.2,0-2.4,0.1-3.5c0.1-1.1,0.1-2.1,0.2-3c-1.1,0.1-2.2,0.1-3.3,0.2c-1.1,0.1-2.2,0.1-3.3,0.2v-4c3.2-0.1,6.5-0.1,9.9-0.1   c3.4,0,6.8,0,10.3,0c5.9,0,10.8,0.7,14.8,2c4,1.3,7,3.3,9.2,5.9c2.1,2.6,3.3,5.8,3.4,9.7c0.1,2.4-0.2,4.8-1,7.4   c-0.8,2.6-2.3,5-4.5,7.3c-2.2,2.3-5.3,4.1-9.3,5.5c-4,1.4-9.1,2.1-15.3,2.1c-0.2,0-0.7,0-1.4,0c-0.7,0-1.3,0-1.9-0.1v13.2   c0,1.6,0,3,0,4.2c0,1.2-0.1,2.2-0.2,2.9c1-0.1,1.9-0.1,2.8-0.2c0.9-0.1,1.8-0.1,2.8-0.1c0.9,0,1.9-0.1,2.8-0.1v4.1h-22.2V68.9z    M1771,44.2c1.1,0.1,2.1,0.2,2.9,0.2c0.8,0,1.8,0,2.9,0c3.4,0,6.6-0.7,9.4-2c2.8-1.4,5.1-3.3,6.8-5.8c1.7-2.5,2.5-5.6,2.5-9.1   c0-2.8-0.5-5.3-1.4-7.3c-0.9-2-2.2-3.7-3.9-4.9c-1.7-1.2-3.6-2.1-5.9-2.7c-2.3-0.6-4.8-0.9-7.6-0.9c-2.1,0-3.6,0.5-4.4,1.4   c-0.8,0.9-1.3,2.2-1.4,3.8c-0.1,1.6-0.1,3.5-0.1,5.7V44.2z"></path>		<path class="st0" d="M1828.1,73.4c-3.3,0-6-0.6-8.2-1.8c-2.2-1.2-3.9-3.3-5-6.2c-1.1-2.9-1.7-6.8-1.7-11.8V37.4c0-1,0-1.9,0-2.9   c0-1,0.1-2,0.3-3c-1,0.1-2.1,0.1-3.1,0.1c-1.1,0-2.1,0.1-3.1,0.1v-3.7h2.8c2.6,0,4.5-0.3,5.7-0.8c1.2-0.5,2.1-1.1,2.8-1.7h2.6   v27.7c0,5.2,0.7,9.1,2.2,11.7c1.5,2.6,4,3.8,7.6,3.8c2.3-0.1,4.5-0.8,6.6-2.1c2.1-1.4,3.8-3,5-4.9V38.4c0-1.4,0-2.7,0.1-3.8   c0.1-1.1,0.2-2.1,0.4-3.1c-1.1,0.1-2.2,0.1-3.3,0.1c-1.1,0-2.2,0.1-3.3,0.1v-3.7h2.8c2.6,0,4.5-0.3,5.7-0.8   c1.2-0.5,2.1-1.1,2.8-1.7h2.6l-0.1,34.3c0,1,0,2.3-0.1,4.1s-0.2,3.2-0.3,4.4c1.1-0.1,2.2-0.1,3.3-0.2c1.1-0.1,2.2-0.1,3.3-0.2v3.8   h-13c-0.2-1-0.3-2-0.4-2.9c-0.1-0.9-0.2-1.8-0.2-2.5c-1.9,1.9-4.1,3.5-6.8,4.9C1833.5,72.7,1830.8,73.4,1828.1,73.4z"></path>		<path class="st0" d="M1864.2,15.2c0-1,0-1.9,0-2.8c0-0.9,0.1-1.9,0.2-3.1c-1.1,0.1-2.2,0.1-3.2,0.2c-1.1,0.1-2.1,0.1-3.2,0.2V5.9   c2.7,0,4.7-0.1,6.2-0.4c1.5-0.2,2.6-0.5,3.4-0.9c0.8-0.4,1.3-0.8,1.8-1.2h2.6v27c1.7-1.7,3.7-3,6-3.9c2.3-0.9,4.9-1.4,7.7-1.4   c3.9,0,7.4,0.9,10.5,2.8c3.1,1.9,5.6,4.5,7.4,8c1.8,3.4,2.7,7.5,2.7,12.2c0,5.1-1.1,9.6-3.4,13.4c-2.2,3.8-5.1,6.7-8.7,8.8   c-3.6,2.1-7.4,3.1-11.5,3.1c-2.1,0-4.3-0.4-6.8-1.1c-2.4-0.8-4.6-2.2-6.6-4.4l-2.2,4.1h-3.2L1864.2,15.2z M1872,57.7   c0,3.2,0.5,5.7,1.5,7.4c1,1.7,2.4,2.9,4,3.6c1.6,0.7,3.4,1,5.2,1c2.9,0,5.4-0.8,7.5-2.5c2.1-1.6,3.8-3.9,4.9-6.8   c1.2-2.9,1.8-6.2,1.8-10c0-4.1-0.5-7.7-1.5-10.8c-1-3.1-2.6-5.6-4.6-7.3c-2.1-1.8-4.7-2.7-7.8-2.7c-2,0-4,0.5-5.9,1.4   c-2,0.9-3.6,2.2-5,3.8V57.7z"></path>		<path class="st0" d="M1911.4,69.2c1.9,0,3.2-0.5,3.9-1.4c0.7-0.9,1.1-2.2,1.3-3.9c0.1-1.7,0.2-3.6,0.2-5.8V15.2c0-1,0-1.9,0-2.8   c0-0.9,0.1-1.9,0.2-3.1c-1.1,0.1-2.2,0.1-3.2,0.2c-1.1,0.1-2.1,0.1-3.2,0.2V5.9c2.7,0,4.7-0.1,6.2-0.4c1.5-0.2,2.6-0.5,3.4-0.9   c0.8-0.4,1.3-0.8,1.8-1.2h2.6l0.1,58.9c0,1.2,0,2.3-0.1,3.2c-0.1,0.9-0.2,1.9-0.4,2.9c1-0.1,1.9-0.1,2.9-0.1   c0.9,0,1.9-0.1,2.9-0.1v3.7h-18.5V69.2z"></path>		<path class="st0" d="M1935.2,69.2c1.9,0,3.2-0.5,3.9-1.4c0.7-0.9,1.1-2.2,1.3-3.9c0.1-1.7,0.2-3.6,0.2-5.8V37.4c0-1,0-1.9,0.1-2.8   c0.1-0.9,0.1-1.9,0.3-3.1c-1.1,0.1-2.2,0.1-3.2,0.2c-1.1,0.1-2.1,0.1-3.2,0.2v-3.8c2.7,0,4.7-0.1,6.2-0.4c1.5-0.2,2.6-0.5,3.3-0.9   c0.8-0.4,1.3-0.8,1.8-1.2h2.6v36.6c0,1.2,0,2.3,0,3.2c0,0.9-0.1,1.9-0.3,2.9c1-0.1,1.9-0.1,2.9-0.1c0.9,0,1.9-0.1,2.9-0.1v3.7   h-18.5V69.2z M1943.9,16.7c-1.3,0-2.4-0.5-3.4-1.5c-1-1-1.5-2.3-1.5-3.8s0.5-2.8,1.5-3.9c1-1.1,2.1-1.6,3.4-1.6   c1.4,0,2.6,0.5,3.5,1.6c0.9,1.1,1.4,2.3,1.4,3.9s-0.5,2.8-1.5,3.8C1946.4,16.2,1945.3,16.7,1943.9,16.7z"></path>		<path class="st0" d="M1981,73.4c-4.1,0-7.8-0.9-11.2-2.8c-3.4-1.8-6.1-4.5-8.2-8c-2-3.5-3-7.7-3-12.6c0-3.1,0.6-6.2,1.7-9.2   c1.1-3,2.8-5.6,4.9-8c2.1-2.4,4.6-4.3,7.5-5.7c2.9-1.4,6.1-2.1,9.6-2.1c3.4,0,6.3,0.5,8.8,1.5c2.5,1,4.5,2.4,5.9,4.1   c1.4,1.7,2.1,3.5,2.1,5.5c0,1.3-0.4,2.5-1.1,3.4c-0.7,0.9-1.8,1.4-3.2,1.4c-1.5,0.1-2.6-0.4-3.2-1.4c-0.6-1-1-1.9-1-2.7   c0-0.6,0.1-1.2,0.3-1.9c0.2-0.6,0.5-1.2,1.1-1.8c-0.5-1.5-1.3-2.5-2.5-3.2c-1.2-0.7-2.5-1.1-3.8-1.4c-1.3-0.2-2.4-0.3-3.2-0.3   c-4.1,0-7.6,1.6-10.4,4.9c-2.8,3.3-4.2,8.1-4.2,14.4c0,4.1,0.6,7.6,2,10.8c1.3,3.1,3.1,5.6,5.5,7.4c2.4,1.8,5.1,2.7,8.2,2.7   c2.8,0,5.6-0.8,8.2-2.3c2.6-1.5,4.6-3.4,6.1-5.5l2.4,1.8c-1.6,2.5-3.5,4.6-5.7,6.2c-2.2,1.6-4.5,2.7-6.8,3.4   C1985.2,73,1983,73.4,1981,73.4z"></path>		<path class="st0" d="M1369.8,198.9v-3c2.3-0.1,3.9-0.6,4.7-1.6c0.8-0.9,1.3-2.2,1.4-3.9c0.1-1.7,0.1-3.5,0.1-5.7v-39.2   c0-1.2,0-2.4,0.1-3.5c0.1-1.1,0.1-2.1,0.2-3c-1.1,0.1-2.2,0.1-3.3,0.2c-1.1,0.1-2.2,0.1-3.3,0.2v-4h20.4v3   c-2.2,0.1-3.8,0.6-4.7,1.5c-0.9,1-1.4,2.3-1.5,3.9c-0.1,1.6-0.1,3.5-0.1,5.7v15.1h32.5v-19c0-1.2,0-2.4,0.1-3.5   c0.1-1.1,0.1-2.1,0.2-3c-1.1,0.1-2.2,0.1-3.3,0.2c-1.1,0.1-2.2,0.1-3.3,0.2v-4h20.4v3c-2.2,0.1-3.8,0.6-4.7,1.5   c-0.9,1-1.4,2.3-1.5,3.9c-0.1,1.6-0.1,3.5-0.1,5.7v38.5c0,1.6,0,3,0,4.2c0,1.2-0.1,2.2-0.2,2.9c1.1-0.1,2.2-0.1,3.3-0.2   c1.1-0.1,2.2-0.1,3.3-0.2v4h-20.4v-3c2.3-0.1,3.9-0.6,4.7-1.6c0.8-0.9,1.3-2.2,1.4-3.9c0.1-1.7,0.1-3.5,0.1-5.7v-16.5l-32.5,0.4   v19.5c0,1.6,0,3,0,4.2c0,1.2-0.1,2.2-0.2,2.9c1.1-0.1,2.2-0.1,3.3-0.2c1.1-0.1,2.2-0.1,3.3-0.2v4H1369.8z"></path>		<path class="st0" d="M1457.7,200.3c-4.2,0-7.9-1-11.3-2.9c-3.4-2-6-4.7-7.9-8.3c-1.9-3.6-2.9-7.8-2.9-12.7c0-4.2,1-8.2,2.9-11.9   c1.9-3.7,4.6-6.7,8-8.9c3.4-2.3,7.4-3.4,12-3.4c2.5,0,4.9,0.4,7.1,1.2c2.2,0.8,4.2,2.1,5.9,3.7c1.7,1.7,3,3.8,4,6.3   c1,2.5,1.5,5.5,1.5,8.8l-31.9,0.5c0,4.6,0.5,8.6,1.5,12.1c1,3.5,2.6,6.2,4.9,8.1c2.2,1.9,5.1,2.9,8.6,2.9c1.9,0,3.8-0.3,5.8-1   c2-0.7,3.8-1.6,5.5-2.7c1.7-1.1,3.1-2.4,4.1-3.8l2.2,1.8c-1.6,2.5-3.6,4.6-5.9,6.1c-2.3,1.5-4.7,2.6-7.1,3.3   C1462,200,1459.8,200.3,1457.7,200.3z M1445.2,168.9h23.1c0-2.2-0.3-4.3-1-6.3c-0.6-2-1.7-3.7-3.1-5c-1.5-1.3-3.4-2-5.7-2   c-3.5,0-6.4,1-8.8,3.1C1447.5,160.8,1445.9,164.2,1445.2,168.9z"></path>		<path class="st0" d="M1510.5,198.9c-0.2-1-0.3-1.9-0.4-2.7c-0.1-0.8-0.2-1.6-0.3-2.4c-2.1,2.1-4.3,3.7-6.7,4.9   c-2.4,1.2-4.9,1.8-7.6,1.8c-4.6,0-8-1-10.2-3.1c-2.2-2.1-3.4-4.6-3.4-7.7c0-2.8,0.9-5.2,2.6-7.2c1.7-2,4-3.7,6.7-5   c2.8-1.3,5.7-2.3,9-2.9c3.2-0.6,6.4-0.9,9.4-0.9V168c0-2.1-0.2-4.1-0.5-6c-0.4-1.9-1.1-3.4-2.4-4.6c-1.2-1.2-3.1-1.8-5.8-1.9   c-1.8-0.1-3.6,0.3-5.4,1c-1.8,0.7-3.2,2-4,3.7c0.5,0.5,0.8,1,1,1.7c0.2,0.6,0.2,1.2,0.2,1.8c0,0.7-0.3,1.6-0.9,2.5   c-0.6,0.9-1.7,1.4-3.2,1.3c-1.3,0-2.2-0.4-2.9-1.3c-0.7-0.9-1-1.9-1-3.1c0-2.1,0.8-3.9,2.3-5.5c1.5-1.6,3.7-2.9,6.4-3.9   c2.7-1,5.8-1.5,9.3-1.5c5.1,0,8.8,1.3,11.2,4c2.4,2.7,3.6,6.9,3.5,12.7c0,2.2,0,4.5,0,6.8c0,2.3,0,4.5,0,6.8c0,2.3,0,4.5,0,6.8   c0,1,0,1.9-0.1,2.9c-0.1,1-0.2,2.1-0.3,3.3c1.1-0.1,2.2-0.1,3.2-0.2c1.1-0.1,2.1-0.1,3.2-0.2v3.8H1510.5z M1509.7,176.7   c-2.1,0.1-4.2,0.3-6.5,0.8c-2.3,0.5-4.4,1.1-6.3,2c-1.9,0.9-3.4,2.1-4.6,3.6c-1.2,1.5-1.7,3.3-1.7,5.4c0.1,2.2,0.9,3.9,2.2,5   c1.4,1.1,3,1.7,4.9,1.7c2.5,0,4.6-0.5,6.5-1.4c1.8-0.9,3.7-2.3,5.5-3.9c-0.1-0.7-0.1-1.4-0.1-2.2c0-0.8,0-1.6,0-2.4   c0-0.3,0-1.3,0-2.9C1509.7,180.7,1509.7,178.8,1509.7,176.7z"></path>		<path class="st0" d="M1527,196.2c1.9,0,3.2-0.5,3.9-1.4c0.7-0.9,1.1-2.2,1.3-3.9c0.1-1.7,0.2-3.6,0.2-5.8v-42.9c0-1,0-1.9,0-2.8   c0-0.9,0.1-1.9,0.2-3.1c-1.1,0.1-2.2,0.1-3.2,0.2c-1.1,0.1-2.1,0.1-3.2,0.2v-3.8c2.7,0,4.7-0.1,6.2-0.4c1.5-0.2,2.6-0.5,3.4-0.9   c0.8-0.4,1.3-0.8,1.8-1.2h2.6l0.1,58.9c0,1.2,0,2.3-0.1,3.2c-0.1,0.9-0.2,1.9-0.4,2.9c1-0.1,1.9-0.1,2.9-0.1   c0.9,0,1.9-0.1,2.9-0.1v3.7H1527V196.2z"></path>		<path class="st0" d="M1567.8,200.3c-1.4,0-2.8-0.2-4.3-0.6c-1.5-0.4-2.8-1.2-4-2.3c-1.2-1.1-2.2-2.8-2.9-5   c-0.7-2.2-1.1-5.1-1.1-8.8l0.2-26.3l-7,0.1v-3.9c1.6-0.1,3.2-0.6,4.8-1.8c1.6-1.1,3.1-2.6,4.4-4.6c1.3-1.9,2.2-4,2.7-6.3h3.1v12.7   h15.2v3.5l-15.2,0.2l-0.2,25.2c0,2.7,0.2,5,0.7,6.9c0.5,1.9,1.2,3.3,2.2,4.3c1,1,2.4,1.4,4,1.4c1.7,0,3.3-0.5,4.8-1.4   c1.5-1,2.8-2.3,3.9-4l2.4,2c-1.3,2-2.6,3.6-3.9,4.7c-1.3,1.2-2.6,2-3.8,2.6c-1.2,0.6-2.3,0.9-3.4,1.1   C1569.4,200.3,1568.6,200.3,1567.8,200.3z"></path>		<path class="st0" d="M1613.2,196.2c1.9,0,3.2-0.5,3.9-1.4c0.7-0.9,1.1-2.2,1.3-3.9c0.1-1.7,0.2-3.6,0.2-5.8v-12.7   c0-5.2-0.8-9.1-2.5-11.7c-1.7-2.6-4.3-3.9-7.8-3.8c-2.2,0.1-4.4,0.6-6.6,1.6c-2.1,1-3.9,2.4-5.2,4v26.8c0,1.2,0,2.3-0.1,3.2   c-0.1,0.9-0.2,1.9-0.4,2.9c1-0.1,1.9-0.1,2.9-0.1c0.9,0,1.9-0.1,2.9-0.1v3.7h-18.5v-2.7c1.9,0,3.2-0.5,3.9-1.4   c0.7-0.9,1.2-2.2,1.3-3.9c0.1-1.7,0.2-3.6,0.2-5.8v-42.9c0-1,0-1.9,0-2.8c0-0.9,0.1-1.9,0.2-3.1c-1.1,0.1-2.2,0.1-3.2,0.2   c-1.1,0.1-2.1,0.1-3.2,0.2v-3.8c2.7,0,4.7-0.1,6.2-0.4c1.5-0.2,2.6-0.5,3.4-0.9c0.8-0.4,1.3-0.8,1.8-1.2h2.6v27.7   c1.3-1.1,2.8-2.2,4.5-3c1.7-0.9,3.4-1.6,5.2-2.1c1.8-0.5,3.5-0.8,5.2-0.8c5.3,0,9.1,1.6,11.4,4.9c2.3,3.3,3.5,8.4,3.6,15.4   l0.1,16.9c0,1.2,0,2.3,0,3.2c0,0.9-0.1,1.9-0.3,2.9c1-0.1,1.9-0.1,2.9-0.1c0.9,0,1.9-0.1,2.9-0.1v3.7h-18.5V196.2z"></path>		<path class="st0" d="M1691.2,175.4c0-2.7-0.4-4.6-1.1-5.7c-0.7-1.1-1.9-1.8-3.4-2.1c-1.6-0.2-3.7-0.3-6.3-0.2l-6.6,0.3v20.8   c0,1.6,0,3,0,4.2c0,1.1-0.1,2.1-0.2,2.9l17.3-0.3c2.7-0.1,5-0.5,6.9-1.3c1.9-0.8,3.4-2.3,4.5-4.3c1.1-2.1,1.6-4.9,1.6-8.4h3.1   l-0.5,17.7h-46.8v-3c2.3-0.1,3.9-0.6,4.7-1.6c0.8-0.9,1.3-2.2,1.4-3.9c0.1-1.7,0.1-3.5,0.1-5.7v-39.2c0-1.2,0-2.4,0.1-3.5   c0.1-1.1,0.1-2.1,0.2-3c-1.1,0.1-2.2,0.1-3.3,0.2c-1.1,0.1-2.2,0.1-3.3,0.2v-4h43.6l0.5,15.9h-3c0-3.6-0.5-6.3-1.6-8.1   c-1.1-1.8-2.6-3.1-4.4-3.7c-1.8-0.6-3.9-0.9-6.2-0.9l-7.8,0.2c-2.2,0.1-3.8,0.5-4.8,1.3c-1,0.8-1.6,2-1.8,3.5   c-0.2,1.5-0.3,3.6-0.3,6v14.5l17.1,0.1l-0.6-7.8h4v19H1691.2z"></path>		<path class="st0" d="M1741.6,222v-2.7c1.9,0,3.2-0.5,3.9-1.4c0.7-0.9,1.1-2.2,1.3-3.9c0.1-1.7,0.2-3.6,0.2-5.8v-13.6   c-1.6,1.8-3.5,3.2-5.8,4.2c-2.3,1-4.9,1.5-7.8,1.5c-3.7,0-7.2-1-10.2-2.9c-3.1-1.9-5.5-4.6-7.3-8.1c-1.8-3.5-2.7-7.5-2.7-12.2   c0-5.1,1-9.5,3.1-13.2c2.1-3.7,4.9-6.7,8.4-8.8c3.5-2.1,7.5-3.1,11.7-3.1c2.5,0,4.9,0.3,6.9,1c2.1,0.7,3.9,1,5.4,1   c0.7,0,1.3-0.1,1.9-0.3c0.6-0.2,1.1-0.6,1.6-1.1h2.5l0.1,59.8c0,1.2,0,2.3,0,3.2c0,0.9-0.1,1.9-0.3,2.9c1-0.1,1.9-0.1,2.9-0.1   c0.9,0,1.9-0.1,2.9-0.1v3.7H1741.6z M1736.6,195.9c2,0,3.9-0.5,5.8-1.6c1.8-1.1,3.4-2.5,4.6-4.2v-23.8c0-2.4-0.3-4.4-1-6   c-0.7-1.6-1.8-2.8-3.3-3.6c-1.5-0.8-3.6-1.2-6.2-1.2c-2.9,0-5.4,0.8-7.5,2.4c-2.1,1.6-3.7,3.9-4.9,6.8c-1.1,2.9-1.7,6.4-1.7,10.3   c0,3.9,0.6,7.4,1.7,10.5s2.8,5.7,4.9,7.5C1731.1,195,1733.7,195.9,1736.6,195.9z"></path>		<path class="st0" d="M1782.8,200.3c-3.3,0-6-0.6-8.2-1.8c-2.2-1.2-3.9-3.3-5-6.2c-1.1-2.9-1.7-6.8-1.7-11.8v-16.1c0-1,0-1.9,0-2.9   c0-1,0.1-2,0.3-3c-1,0.1-2.1,0.1-3.1,0.1c-1.1,0-2.1,0.1-3.1,0.1v-3.7h2.8c2.6,0,4.5-0.3,5.7-0.8c1.2-0.5,2.1-1.1,2.8-1.7h2.6   v27.7c0,5.2,0.7,9.1,2.2,11.7c1.5,2.6,4,3.8,7.6,3.8c2.3-0.1,4.5-0.8,6.6-2.1c2.1-1.4,3.8-3,5-4.9v-23.3c0-1.4,0-2.7,0.1-3.8   c0.1-1.1,0.2-2.1,0.4-3.1c-1.1,0.1-2.2,0.1-3.3,0.1c-1.1,0-2.2,0.1-3.3,0.1v-3.7h2.8c2.6,0,4.5-0.3,5.7-0.8   c1.2-0.5,2.1-1.1,2.8-1.7h2.6l-0.1,34.3c0,1,0,2.3-0.1,4.1c-0.1,1.8-0.2,3.2-0.3,4.4c1.1-0.1,2.2-0.1,3.3-0.2   c1.1-0.1,2.2-0.1,3.3-0.2v3.8h-13c-0.2-1-0.3-2-0.4-2.9c-0.1-0.9-0.2-1.8-0.2-2.5c-1.9,1.9-4.1,3.5-6.8,4.9   C1788.1,199.7,1785.4,200.3,1782.8,200.3z"></path>		<path class="st0" d="M1816,196.2c1.9,0,3.2-0.5,3.9-1.4c0.7-0.9,1.1-2.2,1.3-3.9c0.1-1.7,0.2-3.6,0.2-5.8v-20.7c0-1,0-1.9,0.1-2.8   c0.1-0.9,0.1-1.9,0.3-3.1c-1.1,0.1-2.2,0.1-3.2,0.2c-1.1,0.1-2.1,0.1-3.2,0.2v-3.8c2.7,0,4.7-0.1,6.2-0.4c1.5-0.2,2.6-0.5,3.3-0.9   c0.8-0.4,1.3-0.8,1.8-1.2h2.6v36.6c0,1.2,0,2.3,0,3.2c0,0.9-0.1,1.9-0.3,2.9c1-0.1,1.9-0.1,2.9-0.1c0.9,0,1.9-0.1,2.9-0.1v3.7   H1816V196.2z M1824.8,143.6c-1.3,0-2.4-0.5-3.4-1.5c-1-1-1.5-2.3-1.5-3.8s0.5-2.8,1.5-3.9c1-1.1,2.1-1.6,3.4-1.6   c1.4,0,2.6,0.5,3.5,1.6c0.9,1.1,1.4,2.3,1.4,3.9s-0.5,2.8-1.5,3.8C1827.3,143.1,1826.1,143.6,1824.8,143.6z"></path>		<path class="st0" d="M1858.2,200.3c-1.4,0-2.8-0.2-4.3-0.6c-1.5-0.4-2.8-1.2-4-2.3c-1.2-1.1-2.2-2.8-2.9-5   c-0.7-2.2-1.1-5.1-1.1-8.8l0.2-26.3l-7,0.1v-3.9c1.6-0.1,3.2-0.6,4.8-1.8c1.6-1.1,3.1-2.6,4.4-4.6c1.3-1.9,2.2-4,2.7-6.3h3.1v12.7   h15.2v3.5l-15.2,0.2l-0.2,25.2c0,2.7,0.2,5,0.7,6.9c0.5,1.9,1.2,3.3,2.2,4.3c1,1,2.4,1.4,4,1.4c1.7,0,3.3-0.5,4.8-1.4   c1.5-1,2.8-2.3,3.9-4l2.4,2c-1.3,2-2.6,3.6-3.9,4.7c-1.3,1.2-2.6,2-3.8,2.6c-1.2,0.6-2.3,0.9-3.4,1.1   C1859.8,200.3,1858.9,200.3,1858.2,200.3z"></path>		<path class="st0" d="M1874.4,196.2c1.9,0,3.2-0.5,3.9-1.4c0.7-0.9,1.1-2.2,1.3-3.9c0.1-1.7,0.2-3.6,0.2-5.8v-20.7   c0-1,0-1.9,0.1-2.8c0.1-0.9,0.1-1.9,0.3-3.1c-1.1,0.1-2.2,0.1-3.2,0.2c-1.1,0.1-2.1,0.1-3.2,0.2v-3.8c2.7,0,4.7-0.1,6.2-0.4   c1.5-0.2,2.6-0.5,3.3-0.9c0.8-0.4,1.3-0.8,1.8-1.2h2.6v36.6c0,1.2,0,2.3,0,3.2c0,0.9-0.1,1.9-0.3,2.9c1-0.1,1.9-0.1,2.9-0.1   c0.9,0,1.9-0.1,2.9-0.1v3.7h-18.5V196.2z M1883.2,143.6c-1.3,0-2.4-0.5-3.4-1.5c-1-1-1.5-2.3-1.5-3.8s0.5-2.8,1.5-3.9   c1-1.1,2.1-1.6,3.4-1.6c1.4,0,2.6,0.5,3.5,1.6c0.9,1.1,1.4,2.3,1.4,3.9s-0.5,2.8-1.5,3.8C1885.7,143.1,1884.5,143.6,1883.2,143.6z   "></path>		<path class="st0" d="M1920,200.3c-4.2,0-7.9-1-11.3-2.9c-3.4-2-6-4.7-7.9-8.3c-1.9-3.6-2.9-7.8-2.9-12.7c0-4.2,1-8.2,2.9-11.9   c1.9-3.7,4.6-6.7,8-8.9c3.4-2.3,7.4-3.4,12-3.4c2.5,0,4.9,0.4,7.1,1.2c2.2,0.8,4.2,2.1,5.9,3.7c1.7,1.7,3,3.8,4,6.3   c1,2.5,1.5,5.5,1.5,8.8l-31.9,0.5c0,4.6,0.5,8.6,1.5,12.1c1,3.5,2.6,6.2,4.9,8.1c2.2,1.9,5.1,2.9,8.6,2.9c1.9,0,3.8-0.3,5.8-1   c2-0.7,3.8-1.6,5.5-2.7c1.7-1.1,3.1-2.4,4.1-3.8l2.2,1.8c-1.6,2.5-3.6,4.6-5.9,6.1c-2.3,1.5-4.7,2.6-7.1,3.3   C1924.3,200,1922.1,200.3,1920,200.3z M1907.5,168.9h23.1c0-2.2-0.3-4.3-1-6.3c-0.6-2-1.7-3.7-3.1-5c-1.5-1.3-3.4-2-5.7-2   c-3.5,0-6.4,1-8.8,3.1C1909.7,160.8,1908.2,164.2,1907.5,168.9z"></path>		<path class="st0" d="M1964,200.3c-3,0-5.7-0.4-8.1-1.2c-2.4-0.8-4.3-1.7-5.8-2.8l0.4,3.2h-3.8l-0.5-15.6h2.8   c0.1,2.5,0.8,4.7,2.1,6.7c1.3,2,2.9,3.5,4.9,4.6c2,1.1,4.1,1.6,6.4,1.6c1.6,0,3.1-0.3,4.6-0.8c1.5-0.5,2.8-1.3,3.8-2.4   c1-1.1,1.5-2.4,1.5-4c0-1.7-0.5-3.1-1.5-4.2c-1-1.1-2.3-2.1-3.9-2.9c-1.6-0.8-3.4-1.6-5.3-2.4c-1.8-0.7-3.6-1.5-5.4-2.3   c-1.8-0.8-3.5-1.7-5-2.8c-1.5-1.1-2.8-2.4-3.7-4c-0.9-1.6-1.4-3.5-1.4-5.8c0-1.3,0.2-2.7,0.7-4.2s1.3-2.9,2.4-4.3   c1.1-1.4,2.7-2.5,4.7-3.4s4.5-1.3,7.6-1.3c1.6,0,3.4,0.3,5.4,0.8c2,0.5,3.9,1.6,5.8,3.1l-0.2-3.4h3.8v15.9h-2.9   c-0.1-2.1-0.6-4.2-1.5-6.1c-0.8-2-2.1-3.6-3.7-4.9c-1.6-1.3-3.7-1.9-6.3-1.9c-2.8,0-5,0.7-6.5,2.1c-1.6,1.4-2.4,3-2.4,4.8   c0,1.9,0.6,3.4,1.8,4.7c1.2,1.2,2.7,2.3,4.6,3.2c1.9,0.9,3.9,1.8,6,2.6c2.3,1,4.5,2,6.7,3.2c2.2,1.2,4,2.6,5.4,4.3   c1.4,1.7,2.1,3.9,2.1,6.7c0,3-0.8,5.5-2.3,7.5c-1.5,2-3.5,3.5-5.9,4.4S1966.6,200.3,1964,200.3z"></path>		<path class="st0" d="M1398.7,325.9c-0.2-1-0.3-1.9-0.4-2.7c-0.1-0.8-0.2-1.6-0.3-2.4c-2.1,2.1-4.3,3.7-6.7,4.9   c-2.4,1.2-4.9,1.8-7.6,1.8c-4.6,0-8-1-10.2-3.1c-2.2-2.1-3.4-4.6-3.4-7.7c0-2.8,0.9-5.2,2.6-7.2c1.7-2,4-3.7,6.7-5   c2.8-1.3,5.7-2.3,9-2.9c3.2-0.6,6.4-0.9,9.4-0.9v-5.6c0-2.1-0.2-4.1-0.5-6c-0.4-1.9-1.1-3.4-2.4-4.6c-1.2-1.2-3.1-1.8-5.8-1.9   c-1.8-0.1-3.6,0.3-5.4,1c-1.8,0.7-3.2,2-4,3.7c0.5,0.5,0.8,1,1,1.7c0.2,0.6,0.2,1.2,0.2,1.8c0,0.7-0.3,1.6-0.9,2.5   c-0.6,0.9-1.7,1.4-3.2,1.3c-1.3,0-2.2-0.4-2.9-1.3c-0.7-0.9-1-1.9-1-3.1c0-2.1,0.8-3.9,2.3-5.5c1.5-1.6,3.7-2.9,6.4-3.9   c2.7-1,5.8-1.5,9.3-1.5c5.1,0,8.8,1.3,11.2,4c2.4,2.7,3.6,6.9,3.5,12.7c0,2.2,0,4.5,0,6.8s0,4.5,0,6.8c0,2.3,0,4.5,0,6.8   c0,1,0,1.9-0.1,2.9c-0.1,1-0.2,2.1-0.3,3.3c1.1-0.1,2.2-0.1,3.2-0.2c1.1-0.1,2.1-0.1,3.2-0.2v3.8H1398.7z M1397.9,303.6   c-2.1,0.1-4.2,0.3-6.5,0.8c-2.3,0.5-4.4,1.1-6.3,2c-1.9,0.9-3.4,2.1-4.6,3.6c-1.2,1.5-1.7,3.3-1.7,5.4c0.1,2.2,0.9,3.9,2.2,5   s3,1.7,4.9,1.7c2.5,0,4.6-0.5,6.5-1.4c1.8-0.9,3.7-2.3,5.5-3.9c-0.1-0.7-0.1-1.4-0.1-2.2c0-0.8,0-1.6,0-2.4c0-0.3,0-1.3,0-2.9   C1397.9,307.6,1397.9,305.8,1397.9,303.6z"></path>		<path class="st0" d="M1416.1,325.9v-2.7c1.9,0,3.2-0.5,3.9-1.4c0.7-0.9,1.1-2.2,1.3-3.9c0.1-1.7,0.2-3.6,0.2-5.8l0.1-20.7   c0-1,0-1.9,0-2.9c0-1,0.1-2,0.3-3c-1.1,0.1-2.2,0.1-3.2,0.2s-2.1,0.1-3.2,0.2v-3.8c2.7,0,4.7-0.1,6-0.4c1.4-0.2,2.4-0.5,3-0.9   c0.7-0.4,1.2-0.8,1.6-1.2h2.6c0.1,0.4,0.1,0.9,0.1,1.4c0,0.5,0.1,1.1,0.1,1.8c0.1,0.7,0.1,1.4,0.1,2.3c1.3-1.1,2.8-2.2,4.4-3.1   s3.3-1.6,5.1-2.2c1.8-0.5,3.6-0.8,5.3-0.8c5.3,0,9.1,1.6,11.5,4.9c2.4,3.3,3.6,8.4,3.6,15.4v16.9c0,1.2,0,2.3,0,3.2   c0,0.9-0.1,1.9-0.3,2.9c1-0.1,1.9-0.1,2.9-0.1c0.9,0,1.9-0.1,2.9-0.1v3.7H1446v-2.7c1.9,0,3.2-0.5,3.9-1.4   c0.7-0.9,1.1-2.2,1.3-3.9c0.1-1.7,0.2-3.6,0.2-5.8v-12.7c-0.1-5.2-0.9-9.1-2.6-11.8c-1.7-2.7-4.3-4-7.8-3.9   c-2.2,0.1-4.3,0.6-6.4,1.7c-2.1,1.1-3.8,2.5-5.2,4.2c0.1,0.5,0.1,1,0.1,1.6s0,1.2,0,1.9l-0.1,23.1c0,1.2,0,2.3,0,3.2   c0,0.9-0.1,1.9-0.3,2.9c1-0.1,1.9-0.1,2.9-0.1c0.9,0,1.9-0.1,2.9-0.1v3.7H1416.1z"></path>		<path class="st0" d="M1488.8,327.3c-3.7,0-7-0.9-10-2.8c-3-1.8-5.3-4.5-7-7.9c-1.7-3.4-2.6-7.5-2.6-12.2c0-5,1-9.3,3-13.2   c2-3.8,4.8-6.8,8.3-9c3.5-2.2,7.5-3.3,12-3.3c2,0,4,0.3,5.9,0.8c2,0.5,3.5,1.1,4.7,1.8v-12.4c0-1,0-1.9,0-2.8   c0-0.9,0.1-1.9,0.2-3.1c-1.1,0.1-2.2,0.1-3.2,0.2c-1.1,0.1-2.1,0.1-3.2,0.2v-3.8c2.7,0,4.7-0.1,6.2-0.4c1.5-0.2,2.6-0.5,3.3-0.9   c0.8-0.4,1.3-0.8,1.8-1.2h2.6v58.9c0,1,0,1.9-0.1,2.9c-0.1,1-0.2,2.1-0.3,3.3c1.1-0.1,2.2-0.1,3.2-0.2c1.1-0.1,2.1-0.1,3.2-0.2   v3.8h-13c-0.2-0.9-0.3-1.7-0.4-2.5c-0.1-0.8-0.2-1.5-0.2-2.2c-1.7,1.9-3.8,3.4-6.3,4.5C1494.6,326.8,1491.8,327.3,1488.8,327.3z    M1492.1,322.9c2,0,4-0.6,6-1.7c2-1.1,3.7-2.6,5-4.3c-0.1-0.7-0.1-1.5-0.1-2.3c0-0.8,0-1.7,0-2.7l0.1-26.1c-1.5-1.1-3-1.9-4.8-2.4   c-1.7-0.5-3.5-0.8-5.3-0.8c-3,0-5.7,0.9-7.9,2.6c-2.2,1.8-3.9,4.2-5.1,7.3c-1.1,3.1-1.7,6.8-1.5,11.1c0.1,3.7,0.7,7,1.8,9.9   c1.1,2.9,2.6,5.2,4.5,6.8C1486.8,322,1489.2,322.9,1492.1,322.9z"></path>		<path class="st0" d="M1544.8,325.9v-3c2.3-0.1,3.9-0.6,4.7-1.6c0.8-0.9,1.3-2.2,1.4-3.9c0.1-1.7,0.1-3.5,0.1-5.7v-39.2   c0-1.2,0-2.4,0.1-3.5c0.1-1.1,0.1-2.1,0.2-3c-1.1,0.1-2.2,0.1-3.3,0.2c-1.1,0.1-2.2,0.1-3.3,0.2v-4c3.4-0.1,6.8-0.1,10.3-0.2   c3.5-0.1,7,0,10.5,0.1c5.9,0.1,10.6,0.7,14.2,2c3.6,1.3,6.2,3.1,7.9,5.5c1.7,2.4,2.5,5.3,2.5,8.7c0.1,2.4-0.4,4.8-1.3,7.2   c-0.9,2.5-2.6,4.6-5.1,6.6c-2.4,1.9-6,3.4-10.6,4.4c1.2,0.8,2.3,1.9,3.2,3.3c0.9,1.3,1.9,2.9,3.1,4.6l6.2,9.7c1,1.6,2,3.1,3,4.4   c1,1.3,2.1,2.3,3.4,3.1c1.3,0.8,2.8,1.1,4.7,1.1v3h-11.4c-1.8-1.6-3.2-3.1-4.4-4.7c-1.2-1.6-2.4-3.4-3.7-5.3l-6.1-9.7   c-0.8-1.3-1.7-2.7-2.7-4.4c-1-1.7-2.1-3.1-3.4-4.2c-1,0.1-2,0.1-3,0.1s-2.1,0-3.1-0.1v17.6c0,1.6,0,3,0,4.2c0,1.2-0.1,2.2-0.2,2.9   c0.7-0.1,1.5-0.1,2.2-0.1c0.7,0,1.5-0.1,2.2-0.1c0.7-0.1,1.5-0.1,2.2-0.1v4H1544.8z M1564.6,294.1c3.3-0.1,6.2-0.7,8.8-1.6   c2.5-1,4.5-2.5,5.9-4.6c1.5-2.1,2.2-4.9,2.2-8.3c0-2.3-0.3-4.3-1-6c-0.6-1.7-1.6-3.2-2.9-4.3c-1.3-1.1-3-2-5.1-2.6   c-2.1-0.6-4.5-0.9-7.3-0.9c-2.2,0-3.8,0.5-4.7,1.4c-0.9,0.9-1.4,2.2-1.5,3.8c-0.1,1.6-0.1,3.5-0.1,5.7v17.4c1,0.1,1.9,0.1,2.8,0.2   C1562.6,294.2,1563.6,294.2,1564.6,294.1z"></path>		<path class="st0" d="M1620.3,327.3c-4.2,0-7.9-1-11.3-2.9c-3.4-2-6-4.7-7.9-8.3c-1.9-3.6-2.9-7.8-2.9-12.7c0-4.2,1-8.2,2.9-11.9   c1.9-3.7,4.6-6.7,8-8.9s7.4-3.4,12-3.4c2.5,0,4.9,0.4,7.1,1.2c2.2,0.8,4.2,2.1,5.9,3.7c1.7,1.7,3,3.8,4,6.3c1,2.5,1.5,5.5,1.5,8.8   l-31.9,0.5c0,4.6,0.5,8.6,1.5,12.1c1,3.5,2.6,6.2,4.9,8.1c2.2,1.9,5.1,2.9,8.6,2.9c1.9,0,3.8-0.3,5.8-1c2-0.7,3.8-1.6,5.5-2.7   c1.7-1.1,3.1-2.4,4.1-3.8l2.2,1.8c-1.6,2.5-3.6,4.6-5.9,6.1c-2.3,1.5-4.7,2.6-7.1,3.3C1624.6,327,1622.4,327.3,1620.3,327.3z    M1607.8,295.8h23.1c0-2.2-0.3-4.3-1-6.3c-0.6-2-1.7-3.7-3.1-5c-1.5-1.3-3.4-2-5.7-2c-3.5,0-6.4,1-8.8,3.1   C1610,287.8,1608.5,291.2,1607.8,295.8z"></path>		<path class="st0" d="M1673.1,325.9c-0.2-1-0.3-1.9-0.4-2.7c-0.1-0.8-0.2-1.6-0.3-2.4c-2.1,2.1-4.3,3.7-6.7,4.9   c-2.4,1.2-4.9,1.8-7.6,1.8c-4.6,0-8-1-10.2-3.1c-2.2-2.1-3.4-4.6-3.4-7.7c0-2.8,0.9-5.2,2.6-7.2c1.7-2,4-3.7,6.7-5   c2.8-1.3,5.7-2.3,9-2.9c3.2-0.6,6.4-0.9,9.4-0.9v-5.6c0-2.1-0.2-4.1-0.5-6c-0.4-1.9-1.1-3.4-2.4-4.6c-1.2-1.2-3.1-1.8-5.8-1.9   c-1.8-0.1-3.6,0.3-5.4,1c-1.8,0.7-3.2,2-4,3.7c0.5,0.5,0.8,1,1,1.7c0.2,0.6,0.2,1.2,0.2,1.8c0,0.7-0.3,1.6-0.9,2.5   c-0.6,0.9-1.7,1.4-3.2,1.3c-1.3,0-2.2-0.4-2.9-1.3c-0.7-0.9-1-1.9-1-3.1c0-2.1,0.8-3.9,2.3-5.5c1.5-1.6,3.7-2.9,6.4-3.9   c2.7-1,5.8-1.5,9.3-1.5c5.1,0,8.8,1.3,11.2,4c2.4,2.7,3.6,6.9,3.5,12.7c0,2.2,0,4.5,0,6.8s0,4.5,0,6.8c0,2.3,0,4.5,0,6.8   c0,1,0,1.9-0.1,2.9c-0.1,1-0.2,2.1-0.3,3.3c1.1-0.1,2.2-0.1,3.2-0.2c1.1-0.1,2.1-0.1,3.2-0.2v3.8H1673.1z M1672.3,303.6   c-2.1,0.1-4.2,0.3-6.5,0.8c-2.3,0.5-4.4,1.1-6.3,2c-1.9,0.9-3.4,2.1-4.6,3.6c-1.2,1.5-1.7,3.3-1.7,5.4c0.1,2.2,0.9,3.9,2.2,5   s3,1.7,4.9,1.7c2.5,0,4.6-0.5,6.5-1.4c1.8-0.9,3.7-2.3,5.5-3.9c-0.1-0.7-0.1-1.4-0.1-2.2c0-0.8,0-1.6,0-2.4c0-0.3,0-1.3,0-2.9   C1672.3,307.6,1672.3,305.8,1672.3,303.6z"></path>		<path class="st0" d="M1689.6,323.1c1.9,0,3.2-0.5,3.9-1.4c0.7-0.9,1.1-2.2,1.3-3.9c0.1-1.7,0.2-3.6,0.2-5.8v-42.9c0-1,0-1.9,0-2.8   c0-0.9,0.1-1.9,0.2-3.1c-1.1,0.1-2.2,0.1-3.2,0.2c-1.1,0.1-2.1,0.1-3.2,0.2v-3.8c2.7,0,4.7-0.1,6.2-0.4c1.5-0.2,2.6-0.5,3.4-0.9   c0.8-0.4,1.3-0.8,1.8-1.2h2.6l0.1,58.9c0,1.2,0,2.3-0.1,3.2c-0.1,0.9-0.2,1.9-0.4,2.9c1-0.1,1.9-0.1,2.9-0.1   c0.9,0,1.9-0.1,2.9-0.1v3.7h-18.5V323.1z"></path>		<path class="st0" d="M1768,302.4c0-2.7-0.4-4.6-1.1-5.7c-0.7-1.1-1.9-1.8-3.4-2.1c-1.6-0.2-3.7-0.3-6.3-0.2l-6.6,0.3v20.8   c0,1.6,0,3,0,4.2c0,1.1-0.1,2.1-0.2,2.9l17.3-0.3c2.7-0.1,5-0.5,6.9-1.3c1.9-0.8,3.4-2.3,4.5-4.3c1.1-2.1,1.6-4.9,1.6-8.4h3.1   l-0.5,17.7h-46.8v-3c2.3-0.1,3.9-0.6,4.7-1.6c0.8-0.9,1.3-2.2,1.4-3.9c0.1-1.7,0.1-3.5,0.1-5.7v-39.2c0-1.2,0-2.4,0.1-3.5   c0.1-1.1,0.1-2.1,0.2-3c-1.1,0.1-2.2,0.1-3.3,0.2c-1.1,0.1-2.2,0.1-3.3,0.2v-4h43.6l0.5,15.9h-3c0-3.6-0.5-6.3-1.6-8.1   c-1.1-1.8-2.6-3.1-4.4-3.7c-1.8-0.6-3.9-0.9-6.2-0.9l-7.8,0.2c-2.2,0.1-3.8,0.5-4.8,1.3c-1,0.8-1.6,2-1.8,3.5   c-0.2,1.5-0.3,3.6-0.3,6V291l17.1,0.1l-0.6-7.8h4v19H1768z"></path>		<path class="st0" d="M1807.1,327.3c-3,0-5.7-0.4-8.1-1.2c-2.4-0.8-4.3-1.7-5.8-2.8l0.4,3.2h-3.8l-0.5-15.6h2.8   c0.1,2.5,0.8,4.7,2.1,6.7c1.3,2,2.9,3.5,4.9,4.6c2,1.1,4.1,1.6,6.4,1.6c1.6,0,3.1-0.3,4.6-0.8c1.5-0.5,2.8-1.3,3.8-2.4   c1-1.1,1.5-2.4,1.5-4c0-1.7-0.5-3.1-1.5-4.2s-2.3-2.1-3.9-2.9c-1.6-0.8-3.4-1.6-5.3-2.4c-1.8-0.7-3.6-1.5-5.4-2.3   c-1.8-0.8-3.5-1.7-5-2.8c-1.5-1.1-2.8-2.4-3.7-4c-0.9-1.6-1.4-3.5-1.4-5.8c0-1.3,0.2-2.7,0.7-4.2c0.5-1.5,1.3-2.9,2.4-4.3   c1.1-1.4,2.7-2.5,4.7-3.4c2-0.9,4.5-1.3,7.6-1.3c1.6,0,3.4,0.3,5.4,0.8c2,0.5,3.9,1.6,5.8,3.1l-0.2-3.4h3.8v15.9h-2.9   c-0.1-2.1-0.6-4.2-1.5-6.1c-0.8-2-2.1-3.6-3.7-4.9c-1.6-1.3-3.7-1.9-6.3-1.9c-2.8,0-5,0.7-6.5,2.1c-1.6,1.4-2.4,3-2.4,4.8   c0,1.9,0.6,3.4,1.8,4.7c1.2,1.2,2.7,2.3,4.6,3.2c1.9,0.9,3.9,1.8,6,2.6c2.3,1,4.5,2,6.7,3.2c2.2,1.2,4,2.6,5.4,4.3   c1.4,1.7,2.1,3.9,2.1,6.7c0,3-0.8,5.5-2.3,7.5c-1.5,2-3.5,3.5-5.9,4.4C1812.2,326.8,1809.7,327.3,1807.1,327.3z"></path>		<path class="st0" d="M1845.8,327.3c-1.4,0-2.8-0.2-4.3-0.6c-1.5-0.4-2.8-1.2-4-2.3c-1.2-1.1-2.2-2.8-2.9-5   c-0.7-2.2-1.1-5.1-1.1-8.8l0.2-26.3l-7,0.1v-3.9c1.6-0.1,3.2-0.6,4.8-1.8c1.6-1.1,3.1-2.6,4.4-4.6c1.3-1.9,2.2-4,2.7-6.3h3.1v12.7   h15.2v3.5l-15.2,0.2l-0.2,25.2c0,2.7,0.2,5,0.7,6.9c0.5,1.9,1.2,3.3,2.2,4.3c1,1,2.4,1.4,4,1.4c1.7,0,3.3-0.5,4.8-1.4   c1.5-1,2.8-2.3,3.9-4l2.4,2c-1.3,2-2.6,3.6-3.9,4.7c-1.3,1.2-2.6,2-3.8,2.6c-1.2,0.6-2.3,0.9-3.4,1.1   C1847.4,327.2,1846.5,327.3,1845.8,327.3z"></path>		<path class="st0" d="M1890.9,325.9c-0.2-1-0.3-1.9-0.4-2.7c-0.1-0.8-0.2-1.6-0.3-2.4c-2.1,2.1-4.3,3.7-6.7,4.9   c-2.4,1.2-4.9,1.8-7.6,1.8c-4.6,0-8-1-10.2-3.1c-2.2-2.1-3.4-4.6-3.4-7.7c0-2.8,0.9-5.2,2.6-7.2c1.7-2,4-3.7,6.7-5   c2.8-1.3,5.7-2.3,9-2.9c3.2-0.6,6.4-0.9,9.4-0.9v-5.6c0-2.1-0.2-4.1-0.5-6c-0.4-1.9-1.1-3.4-2.4-4.6c-1.2-1.2-3.1-1.8-5.8-1.9   c-1.8-0.1-3.6,0.3-5.4,1c-1.8,0.7-3.2,2-4,3.7c0.5,0.5,0.8,1,1,1.7c0.2,0.6,0.2,1.2,0.2,1.8c0,0.7-0.3,1.6-0.9,2.5   c-0.6,0.9-1.7,1.4-3.2,1.3c-1.3,0-2.2-0.4-2.9-1.3c-0.7-0.9-1-1.9-1-3.1c0-2.1,0.8-3.9,2.3-5.5c1.5-1.6,3.7-2.9,6.4-3.9   c2.7-1,5.8-1.5,9.3-1.5c5.1,0,8.8,1.3,11.2,4c2.4,2.7,3.6,6.9,3.5,12.7c0,2.2,0,4.5,0,6.8s0,4.5,0,6.8c0,2.3,0,4.5,0,6.8   c0,1,0,1.9-0.1,2.9c-0.1,1-0.2,2.1-0.3,3.3c1.1-0.1,2.2-0.1,3.2-0.2c1.1-0.1,2.1-0.1,3.2-0.2v3.8H1890.9z M1890.1,303.6   c-2.1,0.1-4.2,0.3-6.5,0.8c-2.3,0.5-4.4,1.1-6.3,2c-1.9,0.9-3.4,2.1-4.6,3.6c-1.2,1.5-1.7,3.3-1.7,5.4c0.1,2.2,0.9,3.9,2.2,5   s3,1.7,4.9,1.7c2.5,0,4.6-0.5,6.5-1.4c1.8-0.9,3.7-2.3,5.5-3.9c-0.1-0.7-0.1-1.4-0.1-2.2c0-0.8,0-1.6,0-2.4c0-0.3,0-1.3,0-2.9   C1890.1,307.6,1890.1,305.8,1890.1,303.6z"></path>		<path class="st0" d="M1922.4,327.3c-1.4,0-2.8-0.2-4.3-0.6c-1.5-0.4-2.8-1.2-4-2.3c-1.2-1.1-2.2-2.8-2.9-5   c-0.7-2.2-1.1-5.1-1.1-8.8l0.2-26.3l-7,0.1v-3.9c1.6-0.1,3.2-0.6,4.8-1.8c1.6-1.1,3.1-2.6,4.4-4.6c1.3-1.9,2.2-4,2.7-6.3h3.1v12.7   h15.2v3.5l-15.2,0.2l-0.2,25.2c0,2.7,0.2,5,0.7,6.9c0.5,1.9,1.2,3.3,2.2,4.3c1,1,2.4,1.4,4,1.4c1.7,0,3.3-0.5,4.8-1.4   c1.5-1,2.8-2.3,3.9-4l2.4,2c-1.3,2-2.6,3.6-3.9,4.7c-1.3,1.2-2.6,2-3.8,2.6c-1.2,0.6-2.3,0.9-3.4,1.1   C1924,327.2,1923.1,327.3,1922.4,327.3z"></path>		<path class="st0" d="M1959.2,327.3c-4.2,0-7.9-1-11.3-2.9c-3.4-2-6-4.7-7.9-8.3c-1.9-3.6-2.9-7.8-2.9-12.7c0-4.2,1-8.2,2.9-11.9   c1.9-3.7,4.6-6.7,8-8.9s7.4-3.4,12-3.4c2.5,0,4.9,0.4,7.1,1.2c2.2,0.8,4.2,2.1,5.9,3.7c1.7,1.7,3,3.8,4,6.3c1,2.5,1.5,5.5,1.5,8.8   l-31.9,0.5c0,4.6,0.5,8.6,1.5,12.1c1,3.5,2.6,6.2,4.9,8.1c2.2,1.9,5.1,2.9,8.6,2.9c1.9,0,3.8-0.3,5.8-1c2-0.7,3.8-1.6,5.5-2.7   c1.7-1.1,3.1-2.4,4.1-3.8l2.2,1.8c-1.6,2.5-3.6,4.6-5.9,6.1c-2.3,1.5-4.7,2.6-7.1,3.3C1963.5,327,1961.3,327.3,1959.2,327.3z    M1946.7,295.8h23.1c0-2.2-0.3-4.3-1-6.3c-0.6-2-1.7-3.7-3.1-5c-1.5-1.3-3.4-2-5.7-2c-3.5,0-6.4,1-8.8,3.1   C1948.9,287.8,1947.4,291.2,1946.7,295.8z"></path>	</g>	<rect x="1291" y="2.7" class="st0" width="5.3" height="324.7"></rect>	<g>		<path class="st0" d="M142.3,104.8c-5.5-4.7-12.2-8.7-20.2-12.1c-8-3.3-17-6.4-27.2-9.1c-8.6-2.3-15.8-4.3-21.5-6   s-10.1-3.5-13.4-5.5c-3.3-1.9-5.5-4.1-6.8-6.5c-1.2-2.4-1.9-5.2-1.9-8.5v-0.6c0-5,2.2-9.1,6.5-12.5c4.3-3.3,10.8-5,19.4-5   s17.2,1.8,25.9,5.3c8.6,3.5,17.4,8.4,26.4,14.5l23-33.3c-10.3-8.2-21.7-14.6-34-19c-12.4-4.4-25.9-6.6-40.7-6.6   c-10.3,0-19.8,1.4-28.4,4.3c-8.6,2.9-16,7-22.2,12.4c-6.2,5.4-11,11.7-14.4,19.1c-3.4,7.4-5.1,15.7-5.1,24.9v0.6   c0,10,1.6,18.3,4.8,25c3.2,6.7,7.6,12.3,13.4,16.8c5.8,4.5,12.8,8.3,21,11.3c8.3,3.1,17.5,5.8,27.7,8.3c8.4,2.1,15.3,4.1,20.6,6   c5.3,1.9,9.4,3.8,12.4,5.7c3,1.9,5,4,6.1,6.2c1.1,2.2,1.6,4.7,1.6,7.6v0.6c0,5.9-2.5,10.6-7.6,13.9c-5.1,3.4-12.2,5-21.4,5   c-11.5,0-22.1-2.2-31.7-6.6c-9.7-4.4-19.1-10.3-28.3-17.8L0,174.7c12.1,10.9,25.5,19,40.2,24.3c14.7,5.3,29.8,7.9,45.1,7.9   c10.9,0,20.9-1.4,29.8-4.2c9-2.8,16.7-6.8,23.2-12.1c6.5-5.3,11.5-11.8,15.1-19.5c3.6-7.8,5.4-16.6,5.4-26.6V144   c0-8.8-1.4-16.4-4.2-22.7C151.9,115,147.8,109.5,142.3,104.8z"></path>		<path class="st0" d="M340.5,22.2C333.9,16,325.8,11.3,316.4,8c-9.5-3.3-20.3-5-32.3-5h-82.2V204h44.2v-60.3h33.6   c11.3,0,21.9-1.5,31.7-4.5c9.9-3,18.5-7.4,25.9-13.4c7.4-5.9,13.2-13.3,17.4-22.1C358.9,95,361,84.7,361,73v-0.6   c0-10.3-1.8-19.8-5.3-28.3C352.2,35.6,347.1,28.3,340.5,22.2z M316.2,73.9c0,8.6-3.1,15.9-9.2,21.7c-6.1,5.8-14.8,8.8-25.9,8.8   h-35.1V42.9h34.2c11.1,0,19.9,2.6,26.3,7.8c6.4,5.2,9.6,12.7,9.6,22.7V73.9z"></path>		<polygon class="st0" points="690.4,122.5 785.2,122.5 785.2,83.1 690.4,83.1 690.4,42.3 798.1,42.3 798.1,2.9 646.7,2.9    646.7,204 799.5,204 799.5,164.7 690.4,164.7   "></polygon>		<path class="st0" d="M1003.6,109.7c7.9-10.2,11.9-23.5,11.9-39.8v-0.6c0-19.2-5.7-34.5-17.2-46C984.7,9.7,965.1,2.9,939.7,2.9   h-91.9V204H892v-64.4h34.2h0.6l43.1,64.4h51.7l-49.1-71.8C985.2,127.4,995.6,119.9,1003.6,109.7z M970.7,72.2   c0,8.6-2.9,15.5-8.8,20.7c-5.8,5.2-14.2,7.8-25.1,7.8H892V42.9h44c10.9,0,19.4,2.4,25.6,7.2c6.1,4.8,9.2,12,9.2,21.5V72.2z"></path>		<polygon class="st0" points="1105.4,164.7 1105.4,122.5 1200.2,122.5 1200.2,83.1 1105.4,83.1 1105.4,42.3 1213.2,42.3    1213.2,2.9 1061.8,2.9 1061.8,204 1214.6,204 1214.6,164.7   "></polygon>		<polygon class="st0" points="629.5,81.4 558.5,81.4 558.5,2.9 514.2,2.9 514.2,81.4 442,81.4 442,2.9 397.7,2.9 397.7,204    442,204 442,125.6 514.2,125.6 514.2,204.1 558.5,204 558.5,125.6 629.5,125.6   "></polygon>	</g>	<g>		<path class="st0" d="M646.9,279.9h5.2v46h-5.2V279.9z"></path>		<path class="st0" d="M675,279.9h4.9l29,36.9v-36.9h5.1v46h-4.1L680,288.2v37.7H675V279.9z"></path>		<path class="st0" d="M732.4,279.9h5.8l16.4,39.6l16.4-39.6h5.6l-19.8,46.4h-4.6L732.4,279.9z"></path>		<path class="st0" d="M795,279.9h33.3v4.7h-28.1v15.7h25.1v4.7h-25.1v16.1h28.4v4.7H795V279.9z"></path>		<path class="st0" d="M845.4,319.2l3.2-3.8c4.8,4.3,9.4,6.5,15.8,6.5c6.2,0,10.3-3.3,10.3-7.8v-0.1c0-4.3-2.3-6.7-12-8.7   c-10.6-2.3-15.5-5.7-15.5-13.3v-0.1c0-7.2,6.4-12.6,15.1-12.6c6.7,0,11.5,1.9,16.2,5.7l-3,4c-4.3-3.5-8.5-5-13.3-5   c-6,0-9.8,3.3-9.8,7.4v0.1c0,4.3,2.4,6.8,12.5,8.9c10.3,2.2,15,6,15,13v0.1c0,7.9-6.6,13-15.7,13   C856.9,326.6,851,324.1,845.4,319.2z"></path>		<path class="st0" d="M911.1,284.7h-15.5v-4.8h36.2v4.8h-15.5v41.2h-5.3V284.7z"></path>		<path class="st0" d="M950.9,279.9h5.3L973,305l16.8-25.1h5.3v46h-5.2v-37.3L973,313.3h-0.3L956,288.7v37.2h-5.1V279.9z"></path>		<path class="st0" d="M1017.4,279.9h33.3v4.7h-28.1v15.7h25.1v4.7h-25.1v16.1h28.4v4.7h-33.6V279.9z"></path>		<path class="st0" d="M1070.9,279.9h4.9l29,36.9v-36.9h5.1v46h-4.1l-29.7-37.7v37.7h-5.1V279.9z"></path>		<path class="st0" d="M1144.4,284.7h-15.5v-4.8h36.2v4.8h-15.4v41.2h-5.3V284.7z"></path>		<path class="st0" d="M1180.2,319.2l3.2-3.8c4.8,4.3,9.4,6.5,15.8,6.5c6.2,0,10.3-3.3,10.3-7.8v-0.1c0-4.3-2.3-6.7-12-8.7   c-10.6-2.3-15.5-5.7-15.5-13.3v-0.1c0-7.2,6.4-12.6,15.1-12.6c6.7,0,11.5,1.9,16.2,5.7l-3,4c-4.3-3.5-8.5-5-13.3-5   c-6,0-9.8,3.3-9.8,7.4v0.1c0,4.3,2.4,6.8,12.5,8.9c10.3,2.2,15,6,15,13v0.1c0,7.9-6.6,13-15.7,13   C1191.7,326.6,1185.7,324.1,1180.2,319.2z"></path>	</g></g></svg>