<svg xmlns="http://www.w3.org/2000/svg" xmlns:xlink="http://www.w3.org/1999/xlink" id="Layer_1" x="0px" y="0px" viewBox="0 0 2000 537.7" style="enable-background:new 0 0 2000 537.7;" xml:space="preserve"><style type="text/css">	.st0{fill:#FFFFFF;}</style><g>	<g>		<path class="st0" d="M234.3,172.5c-9-7.7-20.1-14.3-33.2-19.9c-13.1-5.5-28.1-10.5-44.8-14.9c-14.2-3.8-26-7.1-35.3-9.9   c-9.3-2.8-16.7-5.8-22.1-9c-5.4-3.1-9.1-6.7-11.1-10.6c-2.1-3.9-3.1-8.6-3.1-14v-0.9c0-8.2,3.5-15.1,10.6-20.6   c7.1-5.5,17.7-8.3,31.9-8.3s28.4,2.9,42.6,8.8C184,79,198.5,86.9,213.4,97l37.8-54.9c-17-13.6-35.7-24-56.1-31.2   C174.8,3.7,152.5,0,128.2,0c-17,0-32.6,2.4-46.8,7.1C67.3,11.9,55.1,18.7,45,27.5c-10.2,8.8-18.1,19.3-23.7,31.5   c-5.6,12.1-8.5,25.8-8.5,40.9v0.9c0,16.4,2.6,30.1,7.8,41.2c5.2,11,12.6,20.3,22.1,27.7c9.5,7.4,21,13.6,34.6,18.7   c13.6,5,28.8,9.6,45.5,13.7c13.9,3.5,25.2,6.8,33.9,9.9c8.7,3.2,15.5,6.3,20.4,9.5c4.9,3.2,8.2,6.5,10,10.2   c1.7,3.6,2.6,7.8,2.6,12.5v0.9c0,9.8-4.2,17.4-12.5,22.9c-8.4,5.5-20.1,8.3-35.2,8.3c-18.9,0-36.4-3.6-52.3-10.9   c-15.9-7.3-31.5-17-46.6-29.3L0,287.7c19.9,18,41.9,31.3,66.2,40c24.3,8.7,49,13,74.3,13c18,0,34.3-2.3,49.1-6.9   c14.8-4.6,27.5-11.2,38.1-19.9c10.7-8.7,19-19.4,24.9-32.2c6-12.8,8.9-27.4,8.9-43.8v-0.9c0-14.5-2.3-27-6.9-37.4   C250.1,189.3,243.3,180.2,234.3,172.5z"></path>		<path class="st0" d="M560.6,36.5c-10.9-10.1-24.1-17.9-39.7-23.4c-15.6-5.5-33.4-8.3-53.2-8.3H332.4v331.2h72.9v-99.3h55.3   c18.6,0,36-2.4,52.3-7.3c16.2-4.9,30.4-12.2,42.6-22c12.1-9.8,21.7-21.9,28.6-36.4c6.9-14.5,10.4-31.4,10.4-50.6v-0.9   c0-17-2.9-32.6-8.8-46.6C579.9,58.6,571.5,46.6,560.6,36.5z M520.7,121.6c0,14.2-5,26.1-15.1,35.7c-10.1,9.6-24.3,14.4-42.6,14.4   h-57.7V70.5h56.3c18.3,0,32.7,4.3,43.3,12.8c10.6,8.5,15.8,21,15.8,37.4V121.6z"></path>		<polygon class="st0" points="1136.7,201.6 1292.8,201.6 1292.8,136.8 1136.7,136.8 1136.7,69.6 1314.1,69.6 1314.1,4.8    1064.8,4.8 1064.8,335.9 1316.5,335.9 1316.5,271.1 1136.7,271.1   "></polygon>		<path class="st0" d="M1652.4,180.5c13.1-16.9,19.6-38.7,19.6-65.5v-0.9c0-31.5-9.5-56.8-28.4-75.7c-22.4-22.4-54.6-33.6-96.5-33.6   h-151.4v331.2h72.9V230h56.3h0.9l71,106h85.2l-80.9-118.3C1622.2,209.8,1639.3,197.4,1652.4,180.5z M1598.2,118.8   c0,14.2-4.8,25.5-14.4,34.1c-9.6,8.5-23.4,12.8-41.4,12.8h-73.8V70.5h72.4c18,0,32,3.9,42.1,11.8c10.1,7.9,15.1,19.7,15.1,35.5   V118.8z"></path>		<polygon class="st0" points="1820.1,271.1 1820.1,201.6 1976.2,201.6 1976.2,136.8 1820.1,136.8 1820.1,69.6 1997.5,69.6    1997.5,4.8 1748.2,4.8 1748.2,335.9 1999.9,335.9 1999.9,271.1   "></polygon>		<polygon class="st0" points="1036.4,133.9 919.6,133.9 919.5,4.8 846.7,4.8 846.7,133.9 727.7,133.9 727.7,4.8 654.8,4.8    654.8,335.9 727.7,335.9 727.7,206.8 846.7,206.8 846.7,335.9 919.6,335.9 919.6,206.8 1036.4,206.8   "></polygon>	</g>	<g>		<path class="st0" d="M1065.1,460.8h8.6v75.8h-8.6V460.8z"></path>		<path class="st0" d="M1111.3,460.8h8l47.7,60.7v-60.7h8.3v75.8h-6.8l-48.9-62.1v62.1h-8.3V460.8z"></path>		<path class="st0" d="M1205.8,460.8h9.5l27,65.3l27.1-65.3h9.2l-32.6,76.3h-7.6L1205.8,460.8z"></path>		<path class="st0" d="M1309,460.8h54.8v7.8h-46.2v25.9h41.4v7.8h-41.4v26.5h46.8v7.8H1309V460.8z"></path>		<path class="st0" d="M1392,525.5l5.3-6.3c7.9,7.1,15.5,10.7,26,10.7c10.2,0,16.9-5.4,16.9-12.9v-0.2c0-7-3.8-11-19.7-14.4   c-17.4-3.8-25.4-9.4-25.4-21.9v-0.2c0-11.9,10.5-20.7,24.9-20.7c11,0,18.9,3.1,26.6,9.3l-5,6.6c-7-5.7-14.1-8.2-21.9-8.2   c-9.8,0-16.1,5.4-16.1,12.2v0.2c0,7.1,3.9,11.2,20.6,14.7c16.9,3.7,24.7,9.8,24.7,21.4v0.2c0,13-10.8,21.4-25.9,21.4   C1411,537.7,1401.1,533.6,1392,525.5z"></path>		<path class="st0" d="M1500.1,468.7h-25.4v-7.9h59.5v7.9h-25.4v67.9h-8.7V468.7z"></path>		<path class="st0" d="M1565.7,460.8h8.7l27.6,41.4l27.6-41.4h8.7v75.8h-8.6v-61.4l-27.6,40.6h-0.4l-27.6-40.5v61.3h-8.3V460.8z"></path>		<path class="st0" d="M1675.2,460.8h54.8v7.8h-46.2v25.9h41.4v7.8h-41.4v26.5h46.8v7.8h-55.3V460.8z"></path>		<path class="st0" d="M1763.2,460.8h8l47.7,60.7v-60.7h8.3v75.8h-6.8l-48.9-62.1v62.1h-8.3V460.8z"></path>		<path class="st0" d="M1884.2,468.7h-25.4v-7.9h59.5v7.9h-25.4v67.9h-8.7V468.7z"></path>		<path class="st0" d="M1943.2,525.5l5.3-6.3c7.9,7.1,15.5,10.7,26,10.7c10.2,0,16.9-5.4,16.9-12.9v-0.2c0-7-3.8-11-19.7-14.4   c-17.4-3.8-25.4-9.4-25.4-21.9v-0.2c0-11.9,10.5-20.7,24.9-20.7c11,0,18.9,3.1,26.6,9.3l-5,6.6c-7-5.7-14.1-8.2-21.9-8.2   c-9.8,0-16.1,5.4-16.1,12.2v0.2c0,7.1,3.9,11.2,20.6,14.7c16.9,3.7,24.7,9.8,24.7,21.4v0.2c0,13-10.8,21.4-25.9,21.4   C1962.1,537.7,1952.3,533.6,1943.2,525.5z"></path>	</g></g></svg>